<?xml version="1.0" encoding="utf-8" ?>
<svg baseProfile="tiny" height="192" version="1.2" width="192" xmlns="http://www.w3.org/2000/svg" xmlns:ev="http://www.w3.org/2001/xml-events" xmlns:xlink="http://www.w3.org/1999/xlink"><defs><radialGradient cx="0.5" cy="0.5" gradientUnits="objectBoundingBox" id="id32" r="0.5"><stop offset="0.8571" stop-color="rgb(181,45,45)" /><stop offset="1.0" stop-color="rgb(181,45,45)" stop-opacity="0.0" /></radialGradient></defs><ellipse cx="96.0" cy="95.0" fill="rgb(252,252,252)" rx="87.0" ry="87.0" /><ellipse cx="96.0" cy="97.0" fill="rgb(228,228,228)" rx="87.0" ry="87.0" /><ellipse cx="96.0" cy="96.0" fill="rgb(250,250,250)" rx="87.0" ry="87.0" /><path d="M 23.0 95.99999999999999 Q 24.06360930566089 91.68279680857403 26.11904761904762 82.26977038253632 Q 28.2037820994423 72.72258006919978 29.23809523809524 68.58664285529676 Q 32.77517323993373 54.44282896607765 35.476190476190474 55.2721010751456 Q 38.46492996457208 56.18971028759911 41.714285714285715 75.08532723209959 Q 42.88999456957003 81.92229612036834 47.95238095238095 119.5188897273829 Q 51.71090035345936 147.43211400560608 54.19047619047619 154.14959768779167 Q 57.316935832320205 162.61957118631 60.42857142857143 146.3459945938755 Q 62.81739497082872 133.85266056479782 66.66666666666666 96.00000000000003 Q 71.12524269823759 52.15561112303929 72.9047619047619 40.18450093604858 Q 76.18206516581489 18.13755796942708 79.14285714285714 24.375852728494706 Q 81.90216941386498 30.18963613926134 85.38095238095238 63.6683447618839 Q 86.42850756183753 73.74968498884718 88.5 95.99999999999996 Q 90.57149243816247 118.25031501115276 91.61904761904762 128.331655238116 Q 95.09783058613502 161.81036386073862 97.85714285714285 167.62414727150525 Q 100.81793483418511 173.86244203057294 104.09523809523809 151.81549906395145 Q 105.87475730176243 139.8443888769607 110.33333333333333 96.00000000000007 Q 114.18260502917128 58.147339435202184 116.57142857142857 45.65400540612453 Q 119.68306416767979 29.38042881368999 122.8095238095238 37.8504023122083 Q 125.28909964654062 44.56788599439389 129.04761904761904 72.48111027261706 Q 134.11000543042996 110.07770387963164 135.28571428571428 116.91467276790038 Q 138.5350700354279 135.81028971240087 141.52380952380952 136.7278989248544 Q 144.22482676006626 137.55717103392237 147.76190476190476 123.41335714470327 Q 148.79621790055768 119.2774199308003 150.88095238095238 109.73022961746368 Q 152.93639069433908 100.31720319142619 154.0 96.00000000000006" fill="none" stroke="rgb(244,67,54)" stroke-linecap="round" stroke-width="10.0" /><ellipse cx="154.0" cy="95.0" fill="rgb(220,89,89)" rx="20.0" ry="20.0" /><ellipse cx="154.0" cy="98.0" fill="url(#id32) none" rx="21.0" ry="21.0" /><ellipse cx="154.0" cy="96.0" fill="rgb(211,47,47)" rx="20.0" ry="20.0" /></svg>