<?xml version="1.0" encoding="utf-8" ?>
<svg baseProfile="tiny" height="24" version="1.2" width="24" xmlns="http://www.w3.org/2000/svg" xmlns:ev="http://www.w3.org/2001/xml-events" xmlns:xlink="http://www.w3.org/1999/xlink"><defs /><path d="M 3.0 12.000778278426925 Q 3.1289070328631823 11.659593680268225 3.7857142857142865 9.725392657835899 Q 4.265051474690408 8.313814943090971 4.571428571428571 7.720562519301513 Q 4.990139293640613 6.9097931978883755 5.357142857142858 6.983266985632395 Q 5.746752901490694 7.061266570781316 6.142857142857142 8.137759551525177 Q 6.493578498701476 9.090915408834244 6.928571428571429 11.077964881119073 Q 7.0859308551132045 11.796783381369968 7.321428571428571 12.96035845096962 Q 7.68146878743286 14.739287885830135 7.714285714285714 14.898209717717773 Q 8.180634553370105 17.156587296406187 8.5 18.178436808780326 Q 8.91419725310276 19.503712493974454 9.285714285714285 19.53290666737464 Q 9.672599424238918 19.563308481635076 10.071428571428571 18.203199790222257 Q 10.421244671523059 17.010238038336052 10.857142857142858 14.438149851257371 Q 10.883419314340454 14.28310133904542 11.642857142857142 9.478420849747323 Q 12.110521991344957 6.5196794114274566 12.428571428571427 5.124536089183179 Q 12.84200976827752 3.310963508043857 13.214285714285714 3.0466137008827214 Q 13.600685145792628 2.7722349334622294 14.0 4.112911537864664 Q 14.351576466026204 5.293309255839463 14.785714285714285 8.01765001611952 Q 14.917105244925137 8.842166401187283 15.571428571428571 13.371165908077344 Q 16.04547962143086 16.652383136223673 16.357142857142858 18.22525256425289 Q 16.77095344525586 20.313628569047985 17.142857142857142 20.82458154985584 Q 17.52922306652292 21.355403968812418 17.928571428571427 20.27993902041768 Q 18.281790243069864 19.32870323179945 18.714285714285715 16.89195910985837 Q 18.90322557612533 15.827443690902072 19.5 12.000778278426935" fill="none" stroke="rgb(100%,100%,100%)" stroke-linecap="butt" stroke-width="2.0" /><ellipse cx="19.5" cy="12.0" fill="rgb(100%,100%,100%)" rx="2.5" ry="2.5" /></svg>